<svg width="124" height="60" viewBox="0 0 124 60" fill="none" xmlns="http://www.w3.org/2000/svg">
<path opacity="0.6" d="M30.197 20.2898C34.6304 20.2898 37.9695 23.6686 37.9695 28.1548C37.9695 32.6411 34.3624 36.2933 29.929 36.2933C25.4955 36.2933 22.1565 32.9145 22.1565 28.4283C22.1565 23.9421 25.7636 20.2898 30.197 20.2898Z" fill="#D5C5E2"/>
<path d="M30.1948 20.29C34.6283 20.29 37.9673 23.6688 37.9673 28.155C37.9673 32.6413 34.3603 36.2935 29.9268 36.2935C25.4934 36.2935 22.1544 32.9147 22.1544 28.4285C22.1544 23.9423 25.7614 20.29 30.1948 20.29ZM23.5815 21.2166C19.1861 25.6644 21.3436 32.1621 23.0611 33.9363C26.2394 37.2179 32.1804 39.087 36.625 34.5872C40.7413 30.4219 39.2627 25.1401 36.3637 21.9105C34.4384 19.7679 27.9748 16.7711 23.5815 21.2166Z" fill="#25234E"/>
<path d="M41.8452 37.9607L39.9847 39.8546L35.6026 35.3797C35.6026 35.3797 35.2318 34.6587 35.9644 33.9174C36.697 33.1761 37.4631 33.4858 37.4631 33.4858L41.8452 37.9607Z" fill="#D5C5E2"/>
<path d="M39.3238 34.8181C39.0714 34.6147 38.1959 34.1401 37.2333 35.1074C36.2729 36.0747 36.6637 36.8386 36.8536 37.1211C36.8536 37.1211 43.6724 44.776 43.9828 45.0924C44.4407 45.5557 45.381 45.1602 46.252 44.2788C47.1231 43.3973 47.543 42.5453 47.0516 42.0481C46.6518 41.6435 39.5762 35.0215 39.3238 34.8181Z" fill="#6B6591"/>
<path d="M29.3666 19.3785C33.8 19.3785 37.4071 23.0285 37.4071 27.5148C37.4071 32.001 33.8 35.651 29.3666 35.651C24.9331 35.651 21.3261 32.001 21.3261 27.5148C21.3261 23.0285 24.9331 19.3785 29.3666 19.3785ZM29.3666 18.4835C24.4395 18.4835 20.4438 22.5268 20.4438 27.5125C20.4438 32.4982 24.4395 36.5415 29.3666 36.5415C34.2936 36.5415 38.2893 32.5005 38.2893 27.5125C38.2893 22.5245 34.2936 18.4835 29.3666 18.4835Z" fill="#D5C5E2"/>
<path d="M46.2541 44.2811C47.0609 43.4647 47.4632 42.5482 47.1527 42.2339C46.8422 41.9197 45.9364 42.3269 45.1297 43.1433C44.3229 43.9597 43.9205 44.8763 44.2311 45.1905C44.5416 45.5047 45.4473 45.0976 46.2541 44.2811Z" fill="#38366A"/>
<path d="M25.4798 22.7602C24.0235 24.3039 23.4518 26.0125 23.4384 27.9109C23.4339 28.6093 23.53 29.3483 23.9565 29.8953C24.3831 30.4422 25.2296 30.7021 25.788 30.293C26.1587 30.0218 26.3129 29.5495 26.4938 29.1268C26.7707 28.4782 27.1571 27.8748 27.6328 27.3549C28.2269 26.704 28.9551 26.1842 29.5224 25.5107C30.0897 24.8372 30.4939 23.9264 30.2661 23.0699C30.0405 22.2314 29.2231 21.6392 28.3721 21.5421C27.5212 21.4449 26.3196 21.8698 25.4798 22.7602Z" fill="url(#paint0_linear_191_141)"/>
<path opacity="0.59" d="M33.861 34.5534C33.861 34.4494 33.9102 34.3545 33.9928 34.2935C34.4283 33.9793 35.6009 33.2448 36.6127 31.2921C37.2001 30.1531 37.4234 29.2038 37.486 28.8648C37.6624 27.9065 38.1582 28.2275 38.089 28.8467C38.0086 29.5519 37.4033 32.6549 34.3636 34.8088C34.1514 34.9602 33.861 34.8156 33.861 34.5534ZM25.4498 20.0008C25.4207 20.2946 24.9271 20.5726 24.84 20.6291C24.3889 20.9229 23.2721 21.4993 22.2514 23.4474C21.7757 24.3537 21.434 25.2871 21.3178 25.7504C21.128 26.5076 20.6165 26.3561 20.7148 25.7391C20.8265 25.0385 21.5747 21.9671 24.7083 19.9579C24.9294 19.8178 25.4877 19.6121 25.4498 20.0008Z" fill="#D5C5E2"/>
<path d="M32.0457 35.2128C31.0518 35.3958 30.757 34.9755 30.8821 34.5573C30.9803 34.2251 31.3466 34.0827 31.6749 33.9833C33.426 33.4522 34.9045 31.9854 35.9788 30.5299C36.0034 31.7933 35.6751 32.5255 35.0743 33.2759C34.4869 34.0059 33.5734 34.9303 32.0457 35.2128Z" fill="url(#paint1_linear_191_141)"/>
<path d="M40.068 45.4921C40.9262 46.8408 40.5269 48.6451 39.0651 49.3063C35.3073 51.0061 31.1126 51.5965 26.9895 50.9722C21.9027 50.2019 17.2669 47.6343 13.934 43.7413C10.601 39.8483 8.79506 34.8915 8.84793 29.782C8.9008 24.6724 10.809 19.7536 14.2217 15.9294C17.6345 12.1052 22.3225 9.63275 27.4241 8.96644C32.5257 8.30012 37.6981 9.48472 41.9906 12.3025C46.283 15.1203 49.4071 19.3819 50.7886 24.3041C51.9084 28.2938 51.8223 32.5002 50.5748 36.4091C50.0895 37.9298 48.3338 38.5403 46.8824 37.8563C45.4308 37.1723 44.8419 35.4509 45.2486 33.9074C45.9405 31.2814 45.9271 28.5028 45.184 25.8554C44.1788 22.2737 41.9055 19.1727 38.7821 17.1224C35.6587 15.072 31.895 14.21 28.1828 14.6949C24.4706 15.1797 21.0594 16.9788 18.5761 19.7615C16.0928 22.5441 14.7043 26.1234 14.6658 29.8413C14.6273 33.5593 15.9415 37.1661 18.3667 39.9989C20.7919 42.8316 24.1652 44.6999 27.8666 45.2604C30.6026 45.6748 33.382 45.3539 35.9241 44.3561C37.4181 43.7697 39.2097 44.1432 40.068 45.4921Z" fill="#363568"/>
<path d="M63.048 23.496C63.016 23.432 63 23.36 63 23.28C63 23.184 63.008 23.112 63.024 23.064L63.048 22.968C63.048 22.76 63.16 22.656 63.384 22.656H67.488C67.984 22.656 68.376 22.848 68.664 23.232C69.048 23.744 70.136 25.352 71.928 28.056C73.72 30.744 75.072 32.712 75.984 33.96C76.016 33.992 76.048 34.008 76.08 34.008C76.176 34.008 76.224 33.96 76.224 33.864V25.704C76.256 25.336 76 24.88 75.456 24.336C74.928 23.792 74.664 23.512 74.664 23.496V22.968C74.664 22.76 74.8 22.656 75.072 22.656H78.648C78.872 22.656 78.984 22.76 78.984 22.968V23.208C78.984 23.352 78.728 23.704 78.216 24.264C77.72 24.808 77.472 25.28 77.472 25.68V32.832C77.472 32.944 77.472 33.24 77.472 33.72C77.472 34.184 77.472 34.488 77.472 34.632C77.472 34.776 77.48 35.032 77.496 35.4C77.512 35.768 77.536 36.032 77.568 36.192C77.6 36.352 77.64 36.568 77.688 36.84C77.736 37.096 77.8 37.312 77.88 37.488C77.976 37.664 78.088 37.824 78.216 37.968C78.296 38.112 78.312 38.264 78.264 38.424C78.216 38.584 78.112 38.696 77.952 38.76C77.632 38.888 77.288 38.952 76.92 38.952C75.688 38.952 74.528 38.28 73.44 36.936C73.184 36.584 72.008 34.952 69.912 32.04C67.832 29.112 66.712 27.536 66.552 27.312C66.52 27.264 66.496 27.24 66.48 27.24C66.416 27.24 66.384 27.272 66.384 27.336V35.904C66.368 36.256 66.616 36.704 67.128 37.248C67.656 37.776 67.928 38.064 67.944 38.112V38.64C67.944 38.72 67.904 38.792 67.824 38.856C67.744 38.92 67.664 38.952 67.584 38.952H63.984C63.76 38.952 63.648 38.84 63.648 38.616V38.4C63.648 38.24 63.896 37.888 64.392 37.344C64.888 36.8 65.136 36.336 65.136 35.952V25.344L65.112 25.296C64.744 24.896 64.32 24.528 63.84 24.192C63.376 23.856 63.112 23.624 63.048 23.496ZM91.6494 37.512C92.1454 37.928 92.1134 38.304 91.5534 38.64C91.0094 38.912 90.3294 39.048 89.5134 39.048C88.0734 38.856 87.1614 37.808 86.7774 35.904C86.7774 35.888 86.7694 35.84 86.7534 35.76C86.6574 35.328 86.5694 34.984 86.4894 34.728C86.4094 34.456 86.2494 34.168 86.0094 33.864C85.7694 33.544 85.4734 33.376 85.1214 33.36H85.0254C84.5614 33.36 84.2014 33.568 83.9454 33.984C83.6894 34.384 83.5934 34.912 83.6574 35.568C83.7214 36.176 83.9854 36.64 84.4494 36.96C84.9294 37.28 85.4814 37.44 86.1054 37.44C86.1214 37.424 86.1534 37.416 86.2014 37.416C86.2334 37.416 86.2974 37.44 86.3934 37.488C86.4254 37.536 86.4414 37.616 86.4414 37.728C86.2654 38.048 85.9294 38.344 85.4334 38.616C84.9374 38.872 84.3214 39 83.5854 39C82.5454 39 81.6254 38.728 80.8254 38.184C80.0414 37.624 79.6254 36.816 79.5774 35.76C79.5454 34.688 79.9534 33.848 80.8014 33.24C81.6654 32.632 82.6334 32.304 83.7054 32.256C83.7534 32.256 83.8174 32.256 83.8974 32.256C83.9774 32.24 84.0414 32.232 84.0894 32.232C85.0654 32.232 85.8254 32.416 86.3694 32.784C86.3534 32.72 86.3294 32.608 86.2974 32.448C86.2814 32.272 86.2654 32.144 86.2494 32.064C86.0254 30.528 85.7614 29.528 85.4574 29.064C85.1534 28.616 84.7854 28.392 84.3534 28.392C83.5694 28.392 83.3134 28.744 83.5854 29.448C83.8094 29.896 83.9214 30.248 83.9214 30.504C83.9214 30.84 83.7454 31.12 83.3934 31.344C83.0414 31.568 82.6334 31.68 82.1694 31.68C81.7054 31.68 81.2974 31.536 80.9454 31.248C80.5934 30.944 80.4174 30.56 80.4174 30.096C80.4174 29.344 80.8094 28.752 81.5934 28.32C82.3774 27.888 83.3374 27.672 84.4734 27.672C84.7774 27.672 85.0014 27.68 85.1454 27.696C87.9134 27.856 89.5454 29.152 90.0414 31.584C90.0414 31.68 90.2734 32.984 90.7374 35.496C90.9454 36.44 91.2494 37.112 91.6494 37.512ZM92.7004 24.048C92.5564 23.952 92.4844 23.808 92.4844 23.616C92.4684 23.408 92.5484 23.256 92.7244 23.16C93.1884 22.872 93.8524 22.592 94.7164 22.32C95.5804 22.048 96.2764 21.912 96.8044 21.912C97.2684 21.912 97.5964 22.096 97.7884 22.464C97.9804 22.816 98.0764 23.48 98.0764 24.456V29.592C98.5884 28.568 99.3884 27.96 100.476 27.768C100.748 27.704 101.06 27.672 101.412 27.672C102.388 27.672 103.252 27.992 104.004 28.632C104.772 29.256 105.284 30.24 105.54 31.584C106.004 34.032 106.292 35.576 106.404 36.216C106.516 36.536 106.772 36.936 107.172 37.416C107.572 37.88 107.772 38.208 107.772 38.4V38.616C107.772 38.696 107.732 38.776 107.652 38.856C107.588 38.92 107.508 38.952 107.412 38.952H101.244C100.988 38.952 100.86 38.848 100.86 38.64C100.812 38.416 100.82 38.24 100.884 38.112C100.9 38.064 101.14 37.776 101.604 37.248C102.084 36.704 102.316 36.256 102.3 35.904C102.3 35.408 102.084 33.896 101.652 31.368C101.524 30.744 101.332 30.256 101.076 29.904C100.836 29.552 100.468 29.384 99.9724 29.4C99.5564 29.4 99.2044 29.536 98.9164 29.808C98.6444 30.08 98.4524 30.424 98.3404 30.84C98.2444 31.24 98.1804 31.608 98.1484 31.944C98.1164 32.264 98.1084 32.544 98.1244 32.784L98.0764 32.76V35.952C98.0764 36.352 98.3324 36.824 98.8444 37.368C99.3564 37.912 99.6124 38.256 99.6124 38.4V38.616C99.6124 38.696 99.5724 38.776 99.4924 38.856C99.4284 38.92 99.3404 38.952 99.2284 38.952H92.9884C92.7324 38.952 92.6044 38.848 92.6044 38.64C92.5564 38.416 92.5564 38.24 92.6044 38.112C92.6204 38.064 92.8844 37.776 93.3964 37.248C93.9244 36.72 94.1724 36.272 94.1404 35.904V25.8C94.1404 25.384 94.0524 25.064 93.8764 24.84C93.7164 24.616 93.4924 24.44 93.2044 24.312C92.9164 24.184 92.7484 24.096 92.7004 24.048ZM122.132 38.232V38.76C122.132 38.824 122.092 38.896 122.012 38.976C121.948 39.04 121.86 39.072 121.747 39.072C121.076 39.072 120.476 39.064 119.948 39.048C119.42 39.048 119.084 39.048 118.94 39.048C118.46 39.048 118.036 38.864 117.668 38.496C117.316 38.112 117.052 37.648 116.876 37.104C116.396 38.56 115.316 39.288 113.636 39.288C112.596 39.288 111.668 38.976 110.852 38.352C110.036 37.728 109.516 36.76 109.292 35.448C109.212 34.984 109.172 33.616 109.172 31.344C109.156 31.04 109.076 30.752 108.932 30.48C108.804 30.208 108.676 30.008 108.548 29.88C108.42 29.736 108.26 29.576 108.067 29.4C107.875 29.224 107.763 29.12 107.731 29.088C107.603 28.96 107.539 28.8 107.539 28.608C107.539 28.416 107.611 28.272 107.755 28.176C108.332 27.856 109.5 27.696 111.26 27.696C112.028 27.696 112.532 27.848 112.772 28.152C113.028 28.456 113.148 29.128 113.132 30.168V35.424C113.18 35.968 113.348 36.448 113.636 36.864C113.94 37.264 114.348 37.456 114.86 37.44C115.228 37.424 115.54 37.296 115.796 37.056C116.068 36.816 116.26 36.504 116.372 36.12C116.484 35.736 116.564 35.376 116.612 35.04C116.66 34.688 116.684 34.328 116.684 33.96L116.732 31.512C116.732 31.24 116.692 30.992 116.612 30.768C116.548 30.528 116.452 30.32 116.324 30.144C116.196 29.968 116.076 29.824 115.964 29.712C115.868 29.584 115.74 29.456 115.58 29.328C115.436 29.2 115.348 29.12 115.316 29.088C115.188 28.96 115.116 28.8 115.1 28.608C115.1 28.416 115.18 28.272 115.34 28.176C115.884 27.856 117.044 27.696 118.82 27.696C119.604 27.696 120.116 27.848 120.356 28.152C120.612 28.44 120.732 29.112 120.716 30.168L120.596 35.976C120.58 36.264 120.684 36.56 120.908 36.864C121.132 37.152 121.38 37.432 121.652 37.704C121.924 37.96 122.084 38.136 122.132 38.232Z" fill="#363568"/>
<defs>
<linearGradient id="paint0_linear_191_141" x1="24.1095" y1="21.5" x2="27.8347" y2="27.4706" gradientUnits="userSpaceOnUse">
<stop offset="0.285" stop-color="white"/>
<stop offset="1" stop-color="white" stop-opacity="0"/>
</linearGradient>
<linearGradient id="paint1_linear_191_141" x1="32.7227" y1="40.0898" x2="33.6679" y2="30.4376" gradientUnits="userSpaceOnUse">
<stop offset="0.285" stop-color="white"/>
<stop offset="1" stop-color="white" stop-opacity="0"/>
</linearGradient>
</defs>
</svg>
